<?xml version="1.0" encoding="UTF-8" standalone="no"?>
<svg
   xmlns:dc="http://purl.org/dc/elements/1.1/"
   xmlns:cc="http://creativecommons.org/ns#"
   xmlns:rdf="http://www.w3.org/1999/02/22-rdf-syntax-ns#"
   xmlns:svg="http://www.w3.org/2000/svg"
   xmlns="http://www.w3.org/2000/svg"
   xmlns:sodipodi="http://sodipodi.sourceforge.net/DTD/sodipodi-0.dtd"
   xmlns:inkscape="http://www.inkscape.org/namespaces/inkscape"
   version="1.1"
   viewBox="0 0 256 256"
   id="svg1337"
   sodipodi:docname="envelope_brown.svg"
   inkscape:version="1.0.1 (c497b03c, 2020-09-10)">
  <metadata
     id="metadata1343">
    <rdf:RDF>
      <cc:Work
         rdf:about="">
        <dc:format>image/svg+xml</dc:format>
        <dc:type
           rdf:resource="http://purl.org/dc/dcmitype/StillImage" />
        <dc:title></dc:title>
      </cc:Work>
    </rdf:RDF>
  </metadata>
  <defs
     id="defs1341" />
  <sodipodi:namedview
     pagecolor="#ffffff"
     bordercolor="#666666"
     borderopacity="1"
     objecttolerance="10"
     gridtolerance="10"
     guidetolerance="10"
     inkscape:pageopacity="0"
     inkscape:pageshadow="2"
     inkscape:window-width="640"
     inkscape:window-height="480"
     id="namedview1339"
     showgrid="false"
     inkscape:zoom="0.96621033"
     inkscape:cx="128"
     inkscape:cy="128"
     inkscape:current-layer="svg1337"
     inkscape:document-rotation="0" />
  <desc
     id="desc1321">Created with Fabric.js 1.7.22</desc>
  <g
     transform="matrix(0.87,0,0,0.87,128,128)"
     fill="#666"
     id="g1335"
     style="fill:#c8b197;fill-opacity:1">
    <g
       transform="matrix(3.22,0,0,3.22,-144.9,-144.9)"
       fill="#666"
       stroke-linecap="round"
       id="g1333"
       style="fill:#c8b197;fill-opacity:1">
      <path
         d="M 75.546,78.738 H 14.455 C 6.484,78.738 0,72.254 0,64.283 V 25.716 C 0,17.746 6.485,11.261 14.455,11.261 h 61.091 c 7.97,0 14.454,6.485 14.454,14.455 v 38.567 c 0,7.971 -6.484,14.455 -14.454,14.455 z M 14.455,15.488 c -5.64,0 -10.228,4.588 -10.228,10.228 v 38.567 c 0,5.64 4.588,10.229 10.228,10.229 h 61.091 c 5.64,0 10.228,-4.589 10.228,-10.229 V 25.716 c 0,-5.64 -4.588,-10.228 -10.228,-10.228 z"
         id="path1323"
         style="fill:#c8b197;fill-opacity:1" />
      <path
         d="M 11.044,25.917 C 21.848,36.445 32.652,46.972 43.456,57.5 45.47,59.462 48.561,56.378 46.544,54.412 35.74,43.885 24.936,33.357 14.132,22.83 12.118,20.867 9.027,23.952 11.044,25.917 Z"
         id="path1325"
         style="fill:#c8b197;fill-opacity:1" />
      <path
         d="M 46.544,57.5 C 57.348,46.973 68.152,36.445 78.956,25.918 80.972,23.953 77.883,20.867 75.868,22.83 65.064,33.357 54.26,43.885 43.456,54.412 c -2.016,1.965 1.073,5.051 3.088,3.088 z"
         id="path1327"
         style="fill:#c8b197;fill-opacity:1" />
      <path
         d="M 78.837,64.952 C 71.648,58.134 64.458,51.317 57.269,44.499 c -2.039,-1.933 -5.132,1.149 -3.088,3.088 7.189,6.818 14.379,13.635 21.568,20.453 2.039,1.933 5.132,-1.15 3.088,-3.088 z"
         id="path1329"
         style="fill:#c8b197;fill-opacity:1" />
      <path
         d="m 14.446,68.039 c 7.189,-6.818 14.379,-13.635 21.568,-20.453 2.043,-1.938 -1.048,-5.022 -3.088,-3.088 -7.189,6.818 -14.379,13.635 -21.568,20.453 -2.043,1.938 1.048,5.023 3.088,3.088 z"
         id="path1331"
         style="fill:#c8b197;fill-opacity:1" />
    </g>
  </g>
</svg>
